<svg xmlns="http://www.w3.org/2000/svg" viewBox="0 0 200 200">
  <ellipse cx="100" cy="90" rx="45" ry="50" fill="#f8a5c2"/>
  <ellipse cx="100" cy="100" rx="25" ry="20" fill="#f5c2d4"/>
  <ellipse cx="92" cy="100" rx="6" ry="8" fill="#d88ca8"/>
  <ellipse cx="108" cy="100" rx="6" ry="8" fill="#d88ca8"/>
  <circle cx="85" cy="75" r="8" fill="white"/>
  <circle cx="115" cy="75" r="8" fill="white"/>
  <circle cx="87" cy="76" r="4" fill="black"/>
  <circle cx="117" cy="76" r="4" fill="black"/>
  <ellipse cx="70" cy="60" rx="12" ry="18" fill="#f8a5c2"/>
  <ellipse cx="130" cy="60" rx="12" ry="18" fill="#f8a5c2"/>
  <circle cx="100" cy="115" r="10" fill="#87ceeb"/>
  <ellipse cx="100" cy="115" rx="8" ry="6" fill="white"/>
  <rect x="98" y="115" width="4" height="8" fill="#87ceeb" rx="2"/>
  <ellipse cx="100" cy="155" rx="35" ry="30" fill="#7dd3c0"/>
  <ellipse cx="70" cy="150" rx="8" ry="15" fill="#f8a5c2"/>
  <ellipse cx="130" cy="150" rx="8" ry="15" fill="#f8a5c2"/>
  <ellipse cx="85" cy="180" rx="10" ry="8" fill="#f8a5c2"/>
  <ellipse cx="115" cy="180" rx="10" ry="8" fill="#f8a5c2"/>
  <ellipse cx="85" cy="185" rx="12" ry="6" fill="#333"/>
  <ellipse cx="115" cy="185" rx="12" ry="6" fill="#333"/>
</svg>
